<svg width="1200" height="410" viewBox="0 0 1200 410" xmlns="http://www.w3.org/2000/svg">
<defs>
  <linearGradient id="bg" x1="0" x2="1200" y1="0" y2="410"><stop stop-color="#07040D"/><stop offset="1" stop-color="#120921"/></linearGradient>
  <linearGradient id="v" x1="0" x2="1"><stop stop-color="#6D28D9"/><stop offset=".5" stop-color="#C7B8FF"/><stop offset="1" stop-color="#E879F9"/></linearGradient>
  <filter id="glow"><feGaussianBlur stdDeviation="4" result="b"/><feMerge><feMergeNode in="b"/><feMergeNode in="SourceGraphic"/></feMerge></filter>
</defs>
<rect width="1200" height="410" rx="24" fill="url(#bg)" stroke="#2A2044"/>
<text x="42" y="48" fill="#C7B8FF" font-family="Segoe UI,Arial,sans-serif" font-size="15" font-weight="700" letter-spacing="2">MISSION CONTROL // CAPABILITY GRID</text>
<text x="42" y="76" fill="#7A7391" font-family="Consolas,monospace" font-size="12">four systems · one operating model</text>

<g font-family="Segoe UI,Arial,sans-serif">
  <g transform="translate(42 112)">
    <rect width="250" height="220" rx="18" fill="#110A1E" stroke="#6D28D9"/>
    <text x="24" y="42" fill="#F7F5FF" font-size="20" font-weight="700">🤖 AI ASSISTANTS</text>
    <text x="24" y="78" fill="#C7B8FF" font-size="13">Copilot Studio</text>
    <text x="24" y="105" fill="#B9B2CC" font-size="13">Knowledge Systems</text>
    <text x="24" y="132" fill="#B9B2CC" font-size="13">Conversational AI</text>
    <text x="24" y="159" fill="#B9B2CC" font-size="13">RAG Experiences</text>
    <rect x="24" y="187" width="202" height="2" fill="url(#v)"/>
  </g>
  <g transform="translate(330 112)">
    <rect width="250" height="220" rx="18" fill="#110A1E" stroke="#8B5CF6"/>
    <text x="24" y="42" fill="#F7F5FF" font-size="20" font-weight="700">⚡ AUTOMATION</text>
    <text x="24" y="78" fill="#C7B8FF" font-size="13">UiPath</text>
    <text x="24" y="105" fill="#B9B2CC" font-size="13">Power Automate</text>
    <text x="24" y="132" fill="#B9B2CC" font-size="13">RPA</text>
    <text x="24" y="159" fill="#B9B2CC" font-size="13">Orchestration</text>
    <rect x="24" y="187" width="202" height="2" fill="url(#v)"/>
  </g>
  <g transform="translate(618 112)">
    <rect width="250" height="220" rx="18" fill="#110A1E" stroke="#C7B8FF"/>
    <text x="24" y="42" fill="#F7F5FF" font-size="20" font-weight="700">◇ ENTERPRISE APPS</text>
    <text x="24" y="78" fill="#C7B8FF" font-size="13">Power Apps</text>
    <text x="24" y="105" fill="#B9B2CC" font-size="13">Dataverse</text>
    <text x="24" y="132" fill="#B9B2CC" font-size="13">Business Rules</text>
    <text x="24" y="159" fill="#B9B2CC" font-size="13">Digital Workflows</text>
    <rect x="24" y="187" width="202" height="2" fill="url(#v)"/>
  </g>
  <g transform="translate(906 112)">
    <rect width="250" height="220" rx="18" fill="#110A1E" stroke="#E879F9"/>
    <text x="24" y="42" fill="#F7F5FF" font-size="20" font-weight="700">🛰 OPERATIONS</text>
    <text x="24" y="78" fill="#C7B8FF" font-size="13">Monitoring</text>
    <text x="24" y="105" fill="#B9B2CC" font-size="13">Alerting</text>
    <text x="24" y="132" fill="#B9B2CC" font-size="13">Exception Handling</text>
    <text x="24" y="159" fill="#B9B2CC" font-size="13">Governance</text>
    <rect x="24" y="187" width="202" height="2" fill="url(#v)"/>
  </g>
</g>

<g fill="#E879F9" filter="url(#glow)">
  <circle cx="168" cy="356" r="4"><animate attributeName="opacity" values=".2;1;.2" dur="1.7s" repeatCount="indefinite"/></circle>
  <circle cx="456" cy="356" r="4"><animate attributeName="opacity" values=".2;1;.2" dur="1.9s" repeatCount="indefinite"/></circle>
  <circle cx="744" cy="356" r="4"><animate attributeName="opacity" values=".2;1;.2" dur="2.1s" repeatCount="indefinite"/></circle>
  <circle cx="1032" cy="356" r="4"><animate attributeName="opacity" values=".2;1;.2" dur="2.3s" repeatCount="indefinite"/></circle>
</g>
<text x="42" y="384" fill="#7A7391" font-family="Consolas,monospace" font-size="12">status: all capability modules online</text>
</svg>