<svg width="1200" height="260" viewBox="0 0 1200 260" xmlns="http://www.w3.org/2000/svg">
<defs>
  <linearGradient id="bg" x1="0" y1="0" x2="1200" y2="260">
    <stop stop-color="#1A112B"/><stop offset="1" stop-color="#2A1746"/>
  </linearGradient>
  <linearGradient id="wave" x1="0" y1="0" x2="1" y2="0">
    <stop stop-color="#A374FF"/><stop offset=".5" stop-color="#E6DBFF"/><stop offset="1" stop-color="#FF9CF4"/>
  </linearGradient>
  <filter id="soft"><feGaussianBlur stdDeviation="4" result="b"/><feMerge><feMergeNode in="b"/><feMergeNode in="SourceGraphic"/></feMerge></filter>
</defs>
<rect width="1200" height="260" rx="22" fill="url(#bg)" stroke="#5A3788"/>
<text x="42" y="46" fill="#E6DBFF" font-family="Segoe UI,Arial,sans-serif" font-size="15" font-weight="700" letter-spacing="2">PROFILE SIGNAL // LIVE SYSTEM BOARD</text>
<g font-family="Consolas,monospace">
  <text x="70" y="110" fill="#D4C6F8" font-size="12">README</text>
  <text x="70" y="138" fill="#A6F4C5" font-size="18">ONLINE</text>
  <text x="345" y="110" fill="#D4C6F8" font-size="12">AUTOMATIONS</text>
  <text x="345" y="138" fill="#FFB0F9" font-size="18">ACTIVE</text>
  <text x="640" y="110" fill="#D4C6F8" font-size="12">ARCADE</text>
  <text x="640" y="138" fill="#F7F1FF" font-size="18">LIVE</text>
  <text x="915" y="110" fill="#D4C6F8" font-size="12">MODE</text>
  <text x="915" y="138" fill="#F7F1FF" font-size="18">CREATE</text>
</g>
<line x1="42" y1="176" x2="1158" y2="176" stroke="#6A4397" stroke-width="2"/>
<path d="M42 212 C125 185,170 235,250 208 S375 191,455 215 S580 235,660 205 S785 190,865 213 S1000 235,1158 198" fill="none" stroke="url(#wave)" stroke-width="4" filter="url(#soft)" stroke-dasharray="14 18">
  <animate attributeName="stroke-dashoffset" values="0;-120" dur="4s" repeatCount="indefinite"/>
</path>
<circle cx="42" cy="212" r="5" fill="#FF9CF4" filter="url(#soft)">
  <animate attributeName="cx" values="42;1158" dur="4.6s" repeatCount="indefinite"/>
</circle>
</svg>